<svg xmlns="http://www.w3.org/2000/svg" xmlns:xlink="http://www.w3.org/1999/xlink" width="1080" zoomAndPan="magnify" viewBox="0 0 810 1439.999935" height="1920" preserveAspectRatio="xMidYMid meet" version="1.2"><g id="2bc0afe0fb"><rect x="0" width="810" y="0" height="1439.999935" style="fill:#ffffff;fill-opacity:1;stroke:none;"/><rect x="0" width="810" y="0" height="1439.999935" style="fill:#b9a779;fill-opacity:1;stroke:none;"/><path style=" stroke:none;fill-rule:evenodd;fill:#002623;fill-opacity:1;" d="M -163.648438 719.699219 L -163.648438 1888.777344 L 405.027344 1888.597656 L 973.707031 1888.417969 L 973.886719 719.519531 L 974.0625 -449.378906 L -163.648438 -449.378906 Z M -163.292969 720.054688 C -163.292969 1363.046875 -163.214844 1626.195312 -163.113281 1304.832031 C -163.015625 983.464844 -163.015625 457.378906 -163.113281 135.753906 C -163.214844 -185.875 -163.292969 77.0625 -163.292969 720.054688 M 399.996094 525.089844 L 397.28125 533.644531 L 378.59375 533.644531 L 386.074219 539.167969 L 393.550781 544.691406 L 390.835938 553.199219 C 389.339844 557.875 388.222656 561.804688 388.351562 561.933594 C 388.476562 562.058594 391.824219 559.773438 395.789062 556.855469 L 402.996094 551.542969 L 410.308594 556.824219 C 414.328125 559.726562 417.707031 562.011719 417.816406 561.902344 C 417.929688 561.792969 416.796875 557.875 415.304688 553.199219 L 412.589844 544.691406 L 418.367188 540.414062 C 421.546875 538.0625 424.9375 535.59375 425.902344 534.925781 C 427.597656 533.761719 427.324219 533.714844 418.257812 533.679688 L 408.855469 533.644531 L 406.140625 525.089844 C 404.648438 520.386719 403.265625 516.539062 403.070312 516.539062 C 402.871094 516.539062 401.488281 520.386719 399.996094 525.089844 M 329.378906 538.644531 C 329.648438 543.148438 329.902344 547.25 329.9375 547.761719 C 329.988281 548.519531 323.863281 551.5 314.316406 555.355469 C 313.253906 555.785156 315.15625 556.503906 321.804688 558.1875 L 330.714844 560.445312 L 331.28125 566.824219 C 331.59375 570.335938 332.074219 574.414062 332.351562 575.894531 L 332.851562 578.582031 L 337.390625 571.082031 C 340.417969 566.082031 342.351562 563.582031 343.195312 563.582031 C 343.890625 563.582031 347.585938 564.394531 351.414062 565.390625 C 355.238281 566.382812 358.675781 567.09375 359.050781 566.96875 C 359.425781 566.84375 357.292969 563.816406 354.3125 560.246094 C 351.332031 556.671875 348.890625 553.390625 348.890625 552.953125 C 348.890625 552.230469 350.828125 549.007812 355.894531 541.292969 C 356.863281 539.816406 357.492188 538.441406 357.289062 538.238281 C 357.085938 538.035156 353.3125 539.351562 348.898438 541.15625 C 344.484375 542.964844 340.644531 544.179688 340.363281 543.855469 C 338.570312 541.761719 336.785156 539.664062 335.003906 537.5625 C 332.335938 534.425781 329.871094 531.546875 329.519531 531.160156 C 329.148438 530.75 329.089844 533.851562 329.378906 538.644531 M 471.1875 537.539062 L 465.527344 544.207031 L 462.277344 542.910156 C 460.488281 542.195312 456.785156 540.644531 454.039062 539.464844 C 451.296875 538.285156 448.949219 537.421875 448.824219 537.546875 C 448.699219 537.671875 450.683594 541.226562 453.234375 545.449219 L 457.871094 553.121094 L 455.597656 555.753906 C 453.5625 558.109375 451.519531 560.460938 449.476562 562.808594 C 446.21875 566.550781 445.890625 567.167969 447.339844 566.828125 C 448.277344 566.609375 452.355469 565.660156 456.398438 564.722656 L 463.746094 563.015625 L 466.25 567.042969 C 467.628906 569.257812 469.820312 572.808594 471.128906 574.9375 L 473.5 578.804688 L 473.957031 573.867188 C 474.210938 571.152344 474.644531 567.023438 474.921875 564.691406 L 475.421875 560.453125 L 484.332031 558.210938 L 493.246094 555.96875 L 490.394531 554.765625 C 488.824219 554.105469 485.027344 552.53125 481.953125 551.265625 L 476.363281 548.96875 L 476.839844 540.859375 C 477.105469 536.398438 477.488281 532.308594 477.695312 531.769531 C 478.589844 529.433594 476.464844 531.316406 471.1875 537.539062 M 260.746094 585.269531 C 253.941406 586.917969 249.070312 589.875 243.03125 596.019531 C 239.894531 599.210938 226.125 613.507812 212.429688 627.789062 C 198.734375 642.074219 183.65625 657.769531 178.925781 662.675781 C 170.082031 671.839844 145.132812 697.898438 135.707031 707.816406 C 132.789062 710.890625 130.296875 713.695312 130.164062 714.054688 C 129.828125 714.980469 152.375 714.878906 157.539062 713.933594 C 166.808594 712.234375 168.65625 710.527344 193.132812 680.988281 L 208.816406 662.0625 L 210.394531 663.96875 C 211.261719 665.019531 211.984375 666.039062 211.992188 666.234375 C 212.003906 666.429688 205.425781 674.769531 197.375 684.769531 L 165.832031 723.925781 C 156.539062 735.464844 148.660156 745.359375 148.324219 745.921875 C 147.800781 746.789062 148.949219 746.867188 156.164062 746.449219 C 175.625 745.332031 180.773438 744.066406 186.546875 739 C 188.441406 737.335938 216.210938 698.382812 226.4375 683.042969 C 226.765625 682.550781 227.648438 682.972656 228.902344 684.21875 L 230.851562 686.164062 L 199.316406 733.222656 C 181.972656 759.109375 167.617188 780.722656 167.414062 781.253906 C 167.109375 782.042969 167.753906 782.113281 170.820312 781.628906 C 172.898438 781.300781 179.238281 780.386719 184.90625 779.601562 C 199.289062 777.605469 203.964844 775.101562 209.539062 766.390625 C 211.773438 762.902344 223.257812 743.027344 239.71875 714.171875 C 244.246094 706.234375 248.289062 699.746094 248.699219 699.753906 C 249.113281 699.761719 250.179688 700.332031 251.078125 701.023438 L 252.707031 702.277344 L 243.160156 719.71875 C 233.121094 738.066406 223.066406 756.359375 220.050781 761.757812 C 218.101562 765.25 200.371094 797.488281 194.851562 807.582031 L 191.425781 813.84375 L 194.0625 813.367188 C 206.761719 811.0625 219.511719 808.015625 222.355469 806.597656 C 227.6875 803.945312 231.605469 799.519531 235.128906 792.167969 C 236.847656 788.574219 244.988281 771.039062 253.210938 753.203125 C 265.925781 725.632812 271.746094 713.109375 272.375 711.96875 C 272.449219 711.835938 273.628906 712.128906 274.996094 712.625 C 277.765625 713.625 277.785156 713.320312 274.546875 720.410156 C 271.914062 726.183594 254.375 765.839844 245.417969 786.265625 C 241.140625 796.023438 237.765625 804.128906 237.914062 804.28125 C 238.578125 804.941406 259.585938 800.015625 262.582031 798.496094 C 266.820312 796.347656 271.414062 791.886719 273.40625 787.984375 C 274.992188 784.878906 277.011719 779.34375 294.316406 730.746094 C 298.4375 719.171875 298.277344 719.425781 301.042969 720.035156 C 302.265625 720.304688 303.269531 720.769531 303.269531 721.066406 C 303.269531 721.523438 283.027344 781.589844 279.46875 791.695312 C 278.847656 793.460938 278.335938 795.261719 278.328125 795.703125 C 278.3125 797.058594 293.804688 793.4375 298.832031 790.914062 C 306.078125 787.277344 309.6875 782.136719 312.554688 771.378906 C 313.386719 768.242188 316.171875 757.816406 318.734375 748.210938 C 321.296875 738.605469 323.707031 729.382812 324.082031 727.71875 C 324.460938 726.050781 324.855469 724.6875 324.960938 724.6875 C 326.019531 724.6875 329.644531 726.402344 329.644531 726.902344 C 329.644531 727.734375 326.808594 739.523438 320.070312 766.695312 C 317.109375 778.625 314.820312 788.515625 314.980469 788.671875 C 315.632812 789.328125 327.417969 786.484375 330.847656 784.84375 C 335.605469 782.574219 341.234375 776.445312 343.054688 771.554688 C 343.820312 769.5 345.6875 760.519531 347.203125 751.597656 C 348.71875 742.679688 350.125 735.378906 350.324219 735.378906 C 351.148438 735.378906 360.320312 758.003906 360.308594 760.007812 C 360.300781 761.636719 356.371094 768.128906 344.726562 785.757812 L 329.15625 809.335938 L 328.699219 814.214844 L 328.242188 819.097656 L 310.0625 837.316406 L 266.199219 837.316406 L 266.199219 856.167969 L 270.675781 851.734375 L 275.148438 847.296875 L 279.941406 847.296875 C 282.578125 847.296875 284.734375 847.550781 284.734375 847.855469 C 284.734375 848.160156 282.808594 850.316406 280.457031 852.648438 L 276.175781 856.882812 L 280.972656 861.714844 C 283.609375 864.371094 286.015625 866.546875 286.320312 866.546875 C 286.625 866.546875 286.875 864.371094 286.875 861.714844 L 286.875 856.886719 L 291.480469 852.09375 L 296.089844 847.296875 L 305.800781 847.296875 L 310.59375 852.128906 L 315.386719 856.957031 L 315.386719 865.441406 L 326.792969 854.105469 L 321.996094 849.273438 L 317.199219 844.4375 L 325.726562 835.886719 L 334.257812 827.339844 L 342.929688 827.339844 L 360.617188 815.550781 C 370.34375 809.066406 378.417969 803.878906 378.558594 804.015625 C 378.699219 804.15625 376.773438 806.972656 374.28125 810.277344 C 358.867188 830.71875 312.535156 893.554688 312.535156 894.019531 C 312.535156 894.25 317.75 894.339844 324.121094 894.214844 C 335.164062 894 335.914062 893.894531 340.1875 891.917969 C 347.128906 888.714844 350.503906 884.492188 356.539062 871.453125 C 359.308594 865.46875 362.085938 859.492188 364.875 853.515625 L 368.132812 846.546875 L 370.257812 847.644531 L 372.386719 848.746094 L 371.050781 852.121094 C 370.316406 853.976562 364.867188 867.605469 358.945312 882.410156 C 353.023438 897.214844 348.179688 909.691406 348.179688 910.136719 C 348.179688 910.71875 350.234375 910.835938 355.378906 910.550781 C 361.554688 910.210938 363.226562 909.835938 367.171875 907.894531 C 372.566406 905.238281 376.796875 901.097656 379.191406 896.128906 C 380.351562 893.722656 381.960938 886.773438 384.152344 874.742188 C 385.941406 864.941406 387.582031 856.039062 387.804688 854.960938 C 388.160156 853.253906 388.457031 853.0625 390.113281 853.457031 C 391.164062 853.707031 392.105469 853.984375 392.210938 854.066406 C 392.320312 854.152344 391.222656 863.167969 389.777344 874.105469 C 386.972656 895.359375 386.519531 903.667969 387.917969 908.289062 C 389.25 912.695312 392.5625 917.195312 398.074219 922.09375 L 403.070312 926.53125 L 408.039062 922.113281 C 416.640625 914.46875 420.03125 907.121094 419.207031 897.910156 C 418.851562 893.96875 415.527344 867.695312 414.054688 857.199219 C 413.609375 854.007812 413.652344 853.902344 415.636719 853.519531 C 416.761719 853.304688 417.769531 853.214844 417.878906 853.320312 C 417.984375 853.425781 419.679688 862.296875 421.640625 873.039062 C 425.550781 894.425781 426.703125 897.855469 431.683594 902.832031 C 433.28125 904.429688 436.566406 906.714844 438.988281 907.902344 C 442.691406 909.726562 444.539062 910.140625 450.671875 910.511719 C 455.929688 910.835938 457.957031 910.730469 457.957031 910.140625 C 457.957031 909.515625 437.96875 858.699219 434.433594 850.335938 C 433.855469 848.972656 434.0625 848.582031 435.867188 847.648438 L 437.976562 846.558594 L 441.238281 853.523438 C 444.03125 859.496094 446.816406 865.472656 449.589844 871.453125 C 455.636719 884.492188 459.011719 888.714844 465.949219 891.917969 C 470.222656 893.894531 470.972656 894 482.015625 894.214844 C 488.386719 894.339844 493.601562 894.253906 493.601562 894.023438 C 493.601562 893.660156 451.359375 836.328125 433.464844 812.402344 C 430.105469 807.910156 427.460938 804.132812 427.585938 804.007812 C 427.710938 803.882812 435.769531 809.082031 445.492188 815.558594 L 463.164062 827.339844 L 471.878906 827.339844 L 480.410156 835.886719 L 488.9375 844.4375 L 484.140625 849.273438 L 479.34375 854.105469 L 490.75 865.441406 L 490.75 856.882812 L 495.578125 852.089844 L 500.410156 847.296875 L 509.878906 847.296875 L 519.261719 856.820312 L 519.261719 861.683594 C 519.261719 864.359375 519.496094 866.546875 519.78125 866.546875 C 520.066406 866.546875 522.46875 864.386719 525.128906 861.753906 L 529.957031 856.957031 L 525.164062 852.128906 L 520.371094 847.296875 L 525.800781 847.296875 C 531.027344 847.296875 531.316406 847.386719 533.328125 849.613281 C 534.480469 850.890625 536.4375 852.875 537.679688 854.027344 L 539.9375 856.121094 L 539.9375 837.316406 L 496.074219 837.316406 L 477.800781 819.003906 L 477.40625 814.4375 C 477.191406 811.929688 476.714844 809.296875 476.351562 808.589844 C 475.988281 807.886719 468.976562 797.167969 460.765625 784.773438 C 449.503906 767.773438 445.835938 761.699219 445.828125 760.035156 C 445.816406 758.003906 454.984375 735.378906 455.816406 735.378906 C 456.023438 735.378906 457.417969 742.660156 458.917969 751.558594 C 460.417969 760.453125 462.28125 769.433594 463.058594 771.515625 C 464.90625 776.445312 470.519531 782.570312 475.289062 784.84375 C 478.679688 786.464844 490.5 789.328125 491.144531 788.6875 C 491.292969 788.535156 489.046875 778.804688 486.148438 767.066406 C 478.445312 735.855469 476.492188 727.738281 476.492188 726.953125 C 476.492188 726.328125 480.761719 724.417969 481.164062 724.863281 C 481.253906 724.960938 482.839844 730.816406 484.683594 737.875 C 486.527344 744.933594 488.609375 752.792969 489.304688 755.339844 C 490.273438 758.898438 491.222656 762.464844 492.148438 766.03125 C 495.699219 779.699219 498.597656 785.28125 504.09375 789.035156 C 508.359375 791.953125 511.222656 793.003906 519.867188 794.828125 L 527.953125 796.53125 L 527.609375 795.003906 C 527.328125 793.75 507.003906 733.699219 503.410156 723.5 L 502.363281 720.53125 L 504.828125 720.066406 C 506.183594 719.8125 507.445312 719.761719 507.636719 719.949219 C 508.054688 720.371094 512.128906 731.410156 518.191406 748.566406 C 527.6875 775.4375 531.230469 785.042969 532.738281 787.992188 C 534.71875 791.875 539.316406 796.347656 543.523438 798.480469 C 546.472656 799.972656 567.621094 804.882812 568.277344 804.226562 C 568.566406 803.933594 566.003906 798.054688 543.699219 747.855469 C 535.6875 729.820312 528.988281 714.730469 528.8125 714.324219 C 528.527344 713.664062 533.390625 711.363281 533.785156 711.96875 C 533.953125 712.226562 539.398438 723.902344 543.875 733.597656 C 545.324219 736.734375 551.316406 749.726562 557.1875 762.46875 C 573.128906 797.042969 573.796875 798.359375 577.234375 801.789062 C 581.953125 806.496094 585.902344 808.070312 600.492188 811.046875 C 607.734375 812.523438 613.792969 813.597656 613.957031 813.4375 C 614.234375 813.15625 603.75 793.53125 593.386719 774.945312 C 590.765625 770.238281 587.40625 764.144531 585.921875 761.398438 C 584.441406 758.65625 582.664062 755.449219 581.972656 754.269531 C 581.285156 753.09375 574.558594 740.917969 567.027344 727.210938 L 553.335938 702.292969 L 554.914062 701.015625 C 555.78125 700.3125 556.875 699.738281 557.34375 699.738281 C 557.816406 699.738281 561.527344 705.59375 565.597656 712.746094 C 582.882812 743.15625 596.566406 766.589844 598.648438 769.351562 C 601.378906 772.96875 606.367188 776.476562 610.578125 777.742188 C 614.035156 778.785156 637.128906 781.992188 638.3125 781.597656 C 638.722656 781.460938 624.707031 759.929688 607.171875 733.753906 L 575.289062 686.160156 L 577.195312 684.253906 C 578.242188 683.207031 579.226562 682.492188 579.378906 682.667969 C 579.53125 682.84375 587.769531 694.695312 597.691406 709.003906 C 607.613281 723.316406 616.878906 736.246094 618.285156 737.738281 C 623.910156 743.699219 629.660156 745.28125 649.984375 746.453125 C 656.832031 746.84375 658.339844 746.761719 657.875 746.011719 C 657.316406 745.109375 640.507812 724.144531 621.339844 700.449219 C 615.171875 692.816406 609.039062 685.160156 602.933594 677.480469 L 594.042969 666.269531 L 595.640625 664.109375 C 596.519531 662.921875 597.453125 662.191406 597.710938 662.488281 C 597.972656 662.78125 606.058594 672.503906 615.679688 684.085938 C 625.300781 695.667969 634.476562 706.320312 636.066406 707.757812 C 639.886719 711.207031 643.496094 712.984375 648.621094 713.929688 C 653.738281 714.875 676.308594 714.980469 675.972656 714.054688 C 675.644531 713.164062 671.871094 709.191406 617.664062 652.699219 L 593.398438 627.414062 C 557.445312 589.933594 558.023438 590.492188 552.589844 587.933594 C 545.90625 584.78125 542.015625 584.253906 525.375 584.253906 C 508.796875 584.253906 506.960938 584.59375 503.449219 588.296875 C 500.488281 591.414062 500.019531 593.574219 500.003906 604.082031 C 499.988281 614.769531 499.234375 621.5 497.457031 626.789062 C 489.902344 649.320312 468.617188 663.941406 445.550781 662.445312 C 438.699219 662.003906 436.269531 660.921875 434.675781 657.613281 C 434.222656 656.671875 432.847656 648.199219 431.625 638.789062 C 427.601562 607.871094 427.367188 606.417969 425.941406 603.625 C 419.210938 590.429688 391.640625 586.472656 377.40625 596.660156 C 375.640625 597.921875 371.902344 600.011719 369.097656 601.304688 C 362.792969 604.207031 359.605469 607.328125 359.097656 611.09375 C 358.726562 613.882812 359.679688 618.625 361.015625 620.609375 C 361.632812 621.527344 361.910156 621.457031 362.976562 620.109375 C 367.402344 614.511719 379.84375 614.273438 382.667969 619.734375 C 383.695312 621.71875 383.503906 622.710938 378.773438 639.929688 C 373.082031 660.628906 373.097656 660.605469 365.820312 661.871094 C 359.515625 662.972656 354.082031 662.871094 347.617188 661.535156 C 327.765625 657.433594 313.347656 643.613281 307.527344 623.105469 C 307.082031 621.539062 306.558594 614.480469 306.363281 607.421875 C 306.167969 600.367188 305.710938 593.605469 305.339844 592.402344 C 304.492188 589.640625 300.796875 586.117188 297.636719 585.0625 C 294.265625 583.9375 265.574219 584.097656 260.746094 585.269531 "/></g></svg>