<svg width="36" height="36" viewBox="0 0 36 36" fill="none" xmlns="http://www.w3.org/2000/svg">
<path d="M0 13H36V23H0V13Z" fill="#EEEEEE"/>
<path d="M32 5H4C1.791 5 0 6.791 0 9V13H36V9C36 6.791 34.209 5 32 5Z" fill="#007A3D"/>
<path d="M32 31H4C1.791 31 0 29.209 0 27V23H36V27C36 29.209 34.209 31 32 31Z" fill="#141414"/>
<path d="M8 15L8.67354 17.0729H10.8532L9.08981 18.3541L9.76336 20.4271L8 19.1459L6.23664 20.4271L6.91019 18.3541L5.14683 17.0729H7.32646L8 15Z" fill="#CE1126"/>
<path d="M18 15L18.6735 17.0729H20.8532L19.0898 18.3541L19.7634 20.4271L18 19.1459L16.2366 20.4271L16.9102 18.3541L15.1468 17.0729H17.3265L18 15Z" fill="#CE1126"/>
<path d="M28 15L28.6735 17.0729H30.8532L29.0898 18.3541L29.7634 20.4271L28 19.1459L26.2366 20.4271L26.9102 18.3541L25.1468 17.0729H27.3265L28 15Z" fill="#CE1126"/>
</svg>
