<svg xmlns="http://www.w3.org/2000/svg" xmlns:xlink="http://www.w3.org/1999/xlink" width="1920" zoomAndPan="magnify" viewBox="0 0 1440 809.999993" height="1080" preserveAspectRatio="xMidYMid meet" version="1.2"><defs><clipPath id="8f78a26302"><path d="M 504.789062 233.628906 L 935 233.628906 L 935 576.371094 L 504.789062 576.371094 Z M 504.789062 233.628906 "/></clipPath><clipPath id="58a0fb06cb"><path d="M 400.132812 0 L 1039.882812 0 L 1039.882812 810 L 400.132812 810 Z M 400.132812 0 "/></clipPath></defs><g id="d9410a393d"><rect x="0" width="1440" y="0" height="809.999993" style="fill:#ffffff;fill-opacity:1;stroke:none;"/><rect x="0" width="1440" y="0" height="809.999993" style="fill:#002623;fill-opacity:1;stroke:none;"/><g clip-rule="nonzero" clip-path="url(#8f78a26302)"><path style=" stroke:none;fill-rule:nonzero;fill:#b9a779;fill-opacity:1;" d="M 504.789062 233.628906 L 934.558594 233.628906 L 934.558594 576.371094 L 504.789062 576.371094 Z M 504.789062 233.628906 "/></g><g clip-rule="nonzero" clip-path="url(#58a0fb06cb)"><path style=" stroke:none;fill-rule:evenodd;fill:#002623;fill-opacity:1;" d="M 400.132812 404.972656 L 400.132812 1062.71875 L 720.082031 1062.617188 L 1040.035156 1062.515625 L 1040.132812 404.871094 L 1040.234375 -252.777344 L 400.132812 -252.777344 Z M 400.335938 405.171875 C 400.335938 766.929688 400.378906 914.984375 400.433594 734.175781 C 400.492188 553.371094 400.492188 257.386719 400.433594 76.429688 C 400.378906 -104.523438 400.335938 43.410156 400.335938 405.171875 M 717.253906 295.480469 L 715.726562 300.292969 L 705.210938 300.292969 L 709.417969 303.402344 L 713.628906 306.507812 L 712.097656 311.292969 C 711.257812 313.925781 710.628906 316.136719 710.699219 316.210938 C 710.773438 316.28125 712.65625 314.996094 714.886719 313.351562 L 718.941406 310.363281 L 723.054688 313.332031 C 725.316406 314.96875 727.21875 316.253906 727.28125 316.191406 C 727.339844 316.128906 726.703125 313.925781 725.863281 311.292969 L 724.335938 306.507812 L 727.589844 304.101562 C 729.375 302.777344 731.285156 301.390625 731.828125 301.015625 C 732.78125 300.359375 732.628906 300.332031 727.527344 300.3125 L 722.238281 300.292969 L 720.710938 295.480469 C 719.867188 292.835938 719.089844 290.671875 718.980469 290.671875 C 718.871094 290.671875 718.09375 292.835938 717.253906 295.480469 M 677.523438 303.105469 C 677.675781 305.640625 677.816406 307.949219 677.835938 308.234375 C 677.867188 308.664062 674.417969 310.339844 669.046875 312.507812 C 668.449219 312.75 669.519531 313.15625 673.257812 314.101562 L 678.273438 315.371094 L 678.59375 318.960938 C 678.765625 320.9375 679.039062 323.230469 679.195312 324.0625 L 679.476562 325.574219 L 682.03125 321.355469 C 683.730469 318.542969 684.820312 317.136719 685.292969 317.136719 C 685.6875 317.136719 687.765625 317.59375 689.917969 318.152344 C 692.070312 318.714844 694.003906 319.113281 694.214844 319.042969 C 694.425781 318.972656 693.226562 317.269531 691.550781 315.257812 C 689.871094 313.25 688.5 311.402344 688.5 311.15625 C 688.5 310.75 689.589844 308.9375 692.441406 304.597656 C 692.984375 303.765625 693.339844 302.992188 693.226562 302.878906 C 693.109375 302.765625 690.984375 303.503906 688.503906 304.519531 C 686.019531 305.539062 683.859375 306.21875 683.699219 306.039062 C 682.695312 304.859375 681.6875 303.679688 680.6875 302.5 C 679.1875 300.734375 677.796875 299.113281 677.601562 298.894531 C 677.394531 298.664062 677.359375 300.410156 677.523438 303.105469 M 757.304688 302.484375 L 754.121094 306.238281 L 752.292969 305.507812 C 751.289062 305.105469 749.203125 304.234375 747.660156 303.570312 C 746.117188 302.90625 744.796875 302.417969 744.726562 302.488281 C 744.65625 302.558594 745.769531 304.558594 747.207031 306.933594 L 749.816406 311.25 L 748.535156 312.734375 C 747.390625 314.058594 746.242188 315.378906 745.089844 316.703125 C 743.257812 318.808594 743.074219 319.152344 743.886719 318.964844 C 744.417969 318.839844 746.710938 318.304688 748.984375 317.777344 L 753.121094 316.816406 L 754.527344 319.082031 C 755.304688 320.328125 756.539062 322.328125 757.273438 323.523438 L 758.605469 325.703125 L 758.867188 322.921875 C 759.007812 321.394531 759.25 319.070312 759.40625 317.761719 L 759.6875 315.375 L 764.703125 314.113281 L 769.714844 312.851562 L 768.113281 312.175781 C 767.230469 311.804688 765.09375 310.917969 763.363281 310.207031 L 760.21875 308.914062 L 760.488281 304.351562 C 760.636719 301.84375 760.851562 299.542969 760.96875 299.238281 C 761.472656 297.925781 760.277344 298.984375 757.304688 302.484375 M 638.90625 329.335938 C 635.082031 330.265625 632.335938 331.929688 628.941406 335.386719 C 627.175781 337.183594 619.429688 345.226562 611.722656 353.261719 C 604.019531 361.296875 595.535156 370.128906 592.875 372.886719 C 587.898438 378.042969 573.863281 392.707031 568.558594 398.285156 C 566.917969 400.015625 565.511719 401.59375 565.441406 401.796875 C 565.25 402.316406 577.9375 402.257812 580.839844 401.726562 C 586.058594 400.773438 587.097656 399.8125 600.867188 383.191406 L 609.691406 372.542969 L 610.578125 373.617188 C 611.066406 374.207031 611.472656 374.78125 611.480469 374.890625 C 611.484375 375 607.785156 379.695312 603.253906 385.320312 L 585.507812 407.347656 C 580.28125 413.839844 575.847656 419.410156 575.65625 419.722656 C 575.363281 420.210938 576.007812 420.253906 580.070312 420.023438 C 591.015625 419.390625 593.914062 418.683594 597.160156 415.832031 C 598.226562 414.894531 613.851562 392.976562 619.605469 384.347656 C 619.789062 384.070312 620.289062 384.308594 620.992188 385.007812 L 622.089844 386.101562 L 604.347656 412.582031 C 594.589844 427.144531 586.511719 439.304688 586.394531 439.605469 C 586.226562 440.046875 586.585938 440.085938 588.3125 439.8125 C 589.484375 439.628906 593.050781 439.117188 596.238281 438.671875 C 604.332031 437.550781 606.960938 436.140625 610.097656 431.242188 C 611.355469 429.277344 617.816406 418.097656 627.078125 401.863281 C 629.625 397.394531 631.898438 393.746094 632.128906 393.75 C 632.363281 393.753906 632.964844 394.074219 633.46875 394.464844 L 634.382812 395.167969 L 629.015625 404.984375 C 623.367188 415.304688 617.707031 425.597656 616.011719 428.632812 C 614.914062 430.597656 604.941406 448.738281 601.832031 454.417969 L 599.90625 457.941406 L 601.390625 457.671875 C 608.535156 456.375 615.707031 454.660156 617.308594 453.863281 C 620.308594 452.371094 622.511719 449.878906 624.496094 445.742188 C 625.464844 443.722656 630.042969 433.855469 634.667969 423.820312 C 641.820312 408.308594 645.09375 401.265625 645.449219 400.621094 C 645.492188 400.546875 646.15625 400.710938 646.925781 400.992188 C 648.484375 401.554688 648.492188 401.382812 646.671875 405.371094 C 645.191406 408.621094 635.324219 430.929688 630.285156 442.425781 C 627.878906 447.914062 625.976562 452.472656 626.0625 452.558594 C 626.433594 452.929688 638.253906 450.15625 639.941406 449.304688 C 642.324219 448.097656 644.910156 445.585938 646.03125 443.390625 C 646.921875 441.644531 648.058594 438.527344 657.792969 411.1875 C 660.113281 404.675781 660.023438 404.816406 661.578125 405.160156 C 662.269531 405.3125 662.832031 405.574219 662.832031 405.742188 C 662.832031 405.996094 651.445312 439.792969 649.441406 445.476562 C 649.09375 446.46875 648.804688 447.484375 648.800781 447.734375 C 648.789062 448.496094 657.507812 446.457031 660.335938 445.039062 C 664.410156 442.992188 666.445312 440.101562 668.054688 434.046875 C 668.527344 432.28125 670.089844 426.417969 671.53125 421.011719 C 672.976562 415.609375 674.328125 410.421875 674.542969 409.480469 C 674.753906 408.542969 674.976562 407.777344 675.035156 407.777344 C 675.632812 407.777344 677.671875 408.742188 677.671875 409.023438 C 677.671875 409.492188 676.074219 416.125 672.285156 431.410156 C 670.621094 438.125 669.332031 443.6875 669.421875 443.777344 C 669.789062 444.144531 676.417969 442.546875 678.347656 441.625 C 681.023438 440.347656 684.191406 436.898438 685.214844 434.148438 C 685.648438 432.988281 686.695312 427.9375 687.550781 422.917969 C 688.402344 417.898438 689.191406 413.792969 689.304688 413.792969 C 689.769531 413.792969 694.929688 426.523438 694.925781 427.652344 C 694.917969 428.566406 692.707031 432.21875 686.15625 442.136719 L 677.394531 455.402344 L 677.140625 458.148438 L 676.882812 460.894531 L 671.769531 466.019531 L 666.652344 471.144531 L 641.976562 471.144531 L 641.976562 481.75 L 644.492188 479.257812 L 647.011719 476.761719 L 649.707031 476.761719 C 651.191406 476.761719 652.402344 476.902344 652.402344 477.074219 C 652.402344 477.246094 651.320312 478.460938 649.996094 479.769531 L 647.589844 482.152344 L 650.285156 484.871094 C 651.769531 486.367188 653.125 487.589844 653.296875 487.589844 C 653.46875 487.589844 653.609375 486.367188 653.609375 484.871094 L 653.609375 482.15625 L 656.199219 479.457031 L 658.792969 476.761719 L 664.257812 476.761719 L 666.953125 479.476562 L 669.648438 482.195312 L 669.648438 486.96875 L 672.859375 483.78125 L 676.066406 480.589844 L 670.667969 475.152344 L 675.46875 470.339844 L 680.265625 465.53125 L 685.144531 465.53125 L 695.097656 458.898438 C 700.570312 455.25 705.113281 452.332031 705.191406 452.410156 C 705.269531 452.488281 704.1875 454.074219 702.785156 455.933594 C 694.113281 467.433594 668.046875 502.785156 668.046875 503.046875 C 668.046875 503.179688 670.980469 503.226562 674.5625 503.15625 C 680.777344 503.035156 681.199219 502.976562 683.605469 501.867188 C 687.507812 500.0625 689.40625 497.6875 692.804688 490.351562 C 694.359375 486.984375 695.925781 483.621094 697.492188 480.257812 L 699.324219 476.335938 L 700.523438 476.957031 L 701.71875 477.574219 L 700.96875 479.472656 C 700.554688 480.519531 697.488281 488.1875 694.15625 496.515625 C 690.824219 504.84375 688.097656 511.863281 688.097656 512.117188 C 688.097656 512.441406 689.253906 512.507812 692.148438 512.347656 C 695.625 512.15625 696.566406 511.945312 698.785156 510.855469 C 701.820312 509.359375 704.199219 507.027344 705.546875 504.234375 C 706.199219 502.878906 707.105469 498.972656 708.339844 492.203125 C 709.34375 486.6875 710.269531 481.679688 710.394531 481.074219 C 710.59375 480.113281 710.761719 480.003906 711.691406 480.226562 C 712.28125 480.367188 712.8125 480.523438 712.875 480.570312 C 712.933594 480.617188 712.316406 485.6875 711.503906 491.84375 C 709.925781 503.800781 709.671875 508.476562 710.457031 511.074219 C 711.207031 513.554688 713.070312 516.085938 716.171875 518.84375 L 718.980469 521.339844 L 721.777344 518.855469 C 726.617188 514.554688 728.523438 510.417969 728.058594 505.238281 C 727.863281 503.019531 725.992188 488.234375 725.164062 482.332031 C 724.910156 480.535156 724.9375 480.476562 726.054688 480.261719 C 726.683594 480.140625 727.253906 480.089844 727.3125 480.148438 C 727.375 480.207031 728.328125 485.199219 729.429688 491.242188 C 731.628906 503.277344 732.277344 505.207031 735.078125 508.003906 C 735.980469 508.90625 737.828125 510.1875 739.191406 510.859375 C 741.273438 511.886719 742.3125 512.117188 745.765625 512.328125 C 748.722656 512.507812 749.863281 512.449219 749.863281 512.117188 C 749.863281 511.765625 738.617188 483.175781 736.628906 478.46875 C 736.304688 477.703125 736.417969 477.484375 737.433594 476.960938 L 738.621094 476.347656 L 740.457031 480.261719 C 742.027344 483.625 743.59375 486.984375 745.15625 490.351562 C 748.554688 497.6875 750.457031 500.0625 754.359375 501.867188 C 756.765625 502.976562 757.183594 503.035156 763.398438 503.15625 C 766.984375 503.226562 769.917969 503.179688 769.917969 503.046875 C 769.917969 502.84375 746.152344 470.589844 736.082031 457.128906 C 734.191406 454.601562 732.703125 452.476562 732.773438 452.40625 C 732.847656 452.335938 737.378906 455.257812 742.847656 458.902344 L 752.792969 465.53125 L 757.695312 465.53125 L 762.492188 470.339844 L 767.292969 475.152344 L 761.894531 480.589844 L 765.105469 483.78125 L 768.3125 486.96875 L 768.3125 482.152344 L 771.027344 479.457031 L 773.746094 476.761719 L 779.074219 476.761719 L 781.714844 479.441406 L 784.355469 482.117188 L 784.355469 484.855469 C 784.355469 486.359375 784.484375 487.589844 784.644531 487.589844 C 784.804688 487.589844 786.160156 486.375 787.652344 484.894531 L 790.371094 482.195312 L 787.675781 479.480469 L 784.976562 476.761719 L 788.035156 476.761719 C 790.972656 476.761719 791.136719 476.8125 792.269531 478.066406 C 792.917969 478.78125 794.019531 479.898438 794.714844 480.546875 L 795.984375 481.722656 L 795.984375 471.144531 L 771.308594 471.144531 L 766.167969 465.996094 L 761.027344 460.84375 L 760.804688 458.273438 C 760.683594 456.859375 760.417969 455.378906 760.210938 454.984375 C 760.007812 454.585938 756.0625 448.554688 751.441406 441.582031 C 745.105469 432.019531 743.042969 428.601562 743.039062 427.664062 C 743.03125 426.523438 748.1875 413.792969 748.660156 413.792969 C 748.773438 413.792969 749.558594 417.890625 750.402344 422.894531 C 751.246094 427.902344 752.296875 432.953125 752.734375 434.125 C 753.769531 436.898438 756.929688 440.34375 759.613281 441.625 C 761.523438 442.535156 768.171875 444.148438 768.535156 443.785156 C 768.617188 443.699219 767.355469 438.226562 765.722656 431.621094 C 761.390625 414.0625 760.289062 409.492188 760.289062 409.054688 C 760.289062 408.699219 762.691406 407.625 762.917969 407.875 C 762.96875 407.933594 763.863281 411.226562 764.898438 415.199219 C 765.9375 419.167969 767.105469 423.589844 767.5 425.023438 C 768.042969 427.027344 768.578125 429.03125 769.101562 431.039062 C 771.097656 438.726562 772.726562 441.867188 775.820312 443.980469 C 778.21875 445.621094 779.832031 446.214844 784.695312 447.238281 L 789.246094 448.199219 L 789.050781 447.339844 C 788.890625 446.632812 777.457031 412.847656 775.433594 407.109375 L 774.847656 405.4375 L 776.230469 405.179688 C 776.996094 405.035156 777.707031 405.007812 777.8125 405.113281 C 778.050781 405.347656 780.339844 411.558594 783.75 421.214844 C 789.09375 436.332031 791.089844 441.734375 791.933594 443.394531 C 793.050781 445.578125 795.636719 448.097656 798.003906 449.296875 C 799.664062 450.136719 811.5625 452.898438 811.929688 452.527344 C 812.09375 452.363281 810.652344 449.054688 798.101562 420.8125 C 793.59375 410.664062 789.824219 402.175781 789.726562 401.945312 C 789.566406 401.578125 792.304688 400.28125 792.527344 400.621094 C 792.621094 400.765625 795.683594 407.335938 798.203125 412.792969 C 799.015625 414.554688 802.386719 421.867188 805.691406 429.035156 C 814.660156 448.484375 815.039062 449.226562 816.972656 451.15625 C 819.625 453.804688 821.847656 454.691406 830.054688 456.363281 C 834.128906 457.195312 837.539062 457.800781 837.628906 457.710938 C 837.789062 457.550781 831.886719 446.511719 826.058594 436.054688 C 824.582031 433.40625 822.691406 429.976562 821.859375 428.433594 C 821.023438 426.890625 820.023438 425.085938 819.636719 424.421875 C 819.25 423.761719 815.464844 416.910156 811.226562 409.199219 L 803.523438 395.175781 L 804.410156 394.460938 C 804.898438 394.0625 805.515625 393.742188 805.78125 393.742188 C 806.042969 393.742188 808.132812 397.035156 810.421875 401.058594 C 820.148438 418.167969 827.847656 431.351562 829.019531 432.90625 C 830.554688 434.941406 833.359375 436.917969 835.730469 437.628906 C 837.675781 438.214844 850.667969 440.019531 851.335938 439.796875 C 851.5625 439.71875 843.679688 427.605469 833.8125 412.878906 L 815.875 386.101562 L 816.949219 385.027344 C 817.539062 384.441406 818.089844 384.039062 818.175781 384.136719 C 818.261719 384.234375 822.898438 390.902344 828.480469 398.953125 C 834.0625 407.007812 839.277344 414.28125 840.066406 415.121094 C 843.230469 418.476562 846.46875 419.363281 857.898438 420.023438 C 861.753906 420.246094 862.601562 420.195312 862.339844 419.777344 C 862.027344 419.269531 852.566406 407.472656 841.785156 394.140625 C 838.316406 389.847656 834.863281 385.539062 831.429688 381.21875 L 826.425781 374.910156 L 827.328125 373.695312 C 827.820312 373.027344 828.34375 372.617188 828.492188 372.78125 C 828.636719 372.949219 833.1875 378.417969 838.601562 384.933594 C 844.011719 391.449219 849.175781 397.445312 850.070312 398.253906 C 852.21875 400.191406 854.25 401.191406 857.132812 401.726562 C 860.015625 402.257812 872.710938 402.316406 872.523438 401.796875 C 872.339844 401.292969 870.214844 399.058594 839.714844 367.277344 L 826.066406 353.050781 C 805.835938 331.960938 806.164062 332.277344 803.105469 330.835938 C 799.34375 329.0625 797.15625 328.769531 787.792969 328.769531 C 778.464844 328.769531 777.433594 328.957031 775.457031 331.042969 C 773.792969 332.796875 773.527344 334.011719 773.519531 339.921875 C 773.507812 345.9375 773.085938 349.722656 772.085938 352.699219 C 767.835938 365.375 755.859375 373.601562 742.882812 372.757812 C 739.027344 372.511719 737.660156 371.902344 736.765625 370.042969 C 736.507812 369.511719 735.734375 364.742188 735.046875 359.449219 C 732.785156 342.054688 732.652344 341.238281 731.851562 339.664062 C 728.0625 332.242188 712.550781 330.015625 704.542969 335.746094 C 703.550781 336.457031 701.445312 337.632812 699.867188 338.359375 C 696.320312 339.992188 694.527344 341.75 694.242188 343.867188 C 694.035156 345.4375 694.570312 348.105469 695.320312 349.222656 C 695.667969 349.738281 695.824219 349.699219 696.425781 348.941406 C 698.914062 345.789062 705.914062 345.65625 707.503906 348.730469 C 708.082031 349.847656 707.972656 350.40625 705.3125 360.089844 C 702.109375 371.738281 702.117188 371.722656 698.023438 372.4375 C 694.476562 373.054688 691.417969 373 687.785156 372.246094 C 676.613281 369.941406 668.5 362.164062 665.226562 350.625 C 664.976562 349.742188 664.683594 345.773438 664.574219 341.800781 C 664.464844 337.832031 664.203125 334.027344 663.996094 333.351562 C 663.519531 331.796875 661.441406 329.816406 659.664062 329.222656 C 657.765625 328.589844 641.625 328.679688 638.90625 329.335938 "/></g></g></svg>