<svg width="51" height="50" viewBox="0 0 51 50" fill="none" xmlns="http://www.w3.org/2000/svg">
<path d="M22.4185 49.9999H22.4048V49.5361C22.4158 49.6907 22.4185 49.8453 22.4185 49.9999Z" fill="white"/>
<path d="M45.8679 23.8725C45.8624 23.8863 45.8624 23.8946 45.8624 23.8946V23.9001C41.3509 23.6903 36.4307 25.656 33.1095 28.6183C31.8698 29.7253 30.5671 31.2106 29.577 32.8091C28.4306 34.6505 29.0011 37.091 30.8688 38.2367C30.8798 38.2422 30.8907 38.2505 30.9017 38.2588C32.2949 39.0926 34.0282 39.6861 35.9535 39.9429V42.226C35.8274 42.226 35.7012 42.226 35.575 42.2371C34.0063 42.3116 32.5609 42.861 31.3762 43.7472C29.5935 45.0779 28.4005 47.1622 28.2633 49.5392C28.2524 49.6938 28.2496 49.8484 28.2496 50.003H22.4162C22.4162 49.8484 22.4107 49.6911 22.4024 49.5392C22.2653 47.165 21.0696 45.0779 19.2896 43.7472C18.1048 42.861 16.6595 42.3116 15.0907 42.2371C14.9646 42.2288 14.8412 42.226 14.7123 42.226V39.9429C16.6348 39.6861 18.3709 39.0898 19.7641 38.2588C19.7778 38.2533 19.786 38.2422 19.797 38.2367C21.6647 37.0938 22.2351 34.6505 21.0888 32.8091C20.0987 31.2106 18.796 29.7253 17.5563 28.6183C14.2351 25.656 9.31487 23.6903 4.80334 23.9001V23.8946C4.80334 23.8946 4.80334 23.8891 4.79785 23.8725C8.59906 22.517 13.0393 23.5136 16.5388 25.2198C13.6125 20.7722 12.4414 17.8624 13.2998 12.5258C13.4233 13.0448 13.4562 13.5998 13.522 14.1298C13.6125 14.8504 13.7469 15.5516 13.9361 16.2501C15.4253 21.9731 19.5337 25.3026 23.4583 29.2091L23.6531 26.7052L23.7929 24.8968C24.0672 21.4016 23.6723 17.8734 22.5478 14.555C22.3778 14.0525 22.1968 13.5639 22.0048 13.0918C21.4453 11.7169 20.7075 10.4 19.9753 9.10254C21.939 10.9329 23.6147 13.1277 24.7172 15.5654C24.9476 16.0762 25.156 16.5924 25.3343 17.1225C25.5125 16.5924 25.721 16.0762 25.9513 15.5654C27.0539 13.1277 28.7296 10.9301 30.6933 9.10254C29.961 10.3973 29.2232 11.7142 28.6637 13.0918C28.4718 13.5639 28.2908 14.0498 28.1207 14.555C26.9963 17.8734 26.6041 21.4016 26.8756 24.8968L27.0155 26.7052L27.2102 29.2091C31.1348 25.2998 35.2432 21.9731 36.7324 16.2501C36.9216 15.5516 37.056 14.8504 37.1465 14.1298C37.2124 13.6025 37.2453 13.0476 37.3687 12.5258C38.2244 17.8624 37.056 20.7722 34.1297 25.2198C37.6292 23.5109 42.0695 22.517 45.8707 23.8725H45.8679Z" fill="white"/>
<path d="M28.252 49.9999H28.2657V49.5361C28.2547 49.6907 28.252 49.8453 28.252 49.9999Z" fill="white"/>
<path d="M27.4347 6.25863C27.4347 8.73226 26.6257 10.9574 25.3367 12.5173C24.0449 10.9602 23.2358 8.73226 23.2358 6.25863C23.2358 3.78499 24.0449 1.55706 25.3367 0C26.6257 1.55706 27.4347 3.78499 27.4347 6.25863Z" fill="white"/>
<path d="M42.1046 12.9375C41.3147 14.1688 40.2259 15.0605 39.0466 15.5409C39.3044 14.2489 39.8694 12.8409 40.9335 11.3804C40.2862 11.8056 39.4827 12.4461 38.7614 13.3903C38.5721 13.6387 38.4076 13.8817 38.2622 14.1191C38.3692 13.1087 38.7202 12.0734 39.3291 11.1265C40.278 9.64115 41.6712 8.65556 43.1248 8.27734C43.3799 9.76814 43.0562 11.4522 42.1046 12.9375Z" fill="white"/>
<path d="M27.4347 6.25863C27.4347 8.73226 26.6257 10.9574 25.3367 12.5173C24.0449 10.9602 23.2358 8.73226 23.2358 6.25863C23.2358 3.78499 24.0449 1.55706 25.3367 0C26.6257 1.55706 27.4347 3.78499 27.4347 6.25863Z" fill="white"/>
<path d="M33.43 19.165C32.429 21.3267 30.8218 22.9362 29.0638 23.7672C28.5647 21.8733 28.7621 19.5929 29.7632 17.4313C30.7642 15.2696 32.3741 13.6573 34.1321 12.8291C34.6285 14.723 34.4338 17.0034 33.4327 19.1623L33.43 19.165Z" fill="white"/>
<path d="M44.3152 20.7939C42.1788 21.8154 39.9244 22.0197 38.043 21.5283C38.8548 19.7476 40.4455 18.1187 42.5819 17.0972C44.7184 16.0758 46.9755 15.8687 48.8542 16.3629C48.0397 18.1408 46.4517 19.7724 44.3125 20.7911L44.3152 20.7939Z" fill="white"/>
<path d="M45.5878 27.7923C43.8435 27.5936 42.3406 26.8344 41.3423 25.7825C42.5435 24.9791 44.1809 24.5761 45.9251 24.7748C47.6694 24.9736 49.1751 25.7328 50.1706 26.7874C48.9694 27.588 47.3321 27.9911 45.5878 27.7923Z" fill="white"/>
<path d="M40.5688 32.6627C38.9808 31.1277 38.0511 29.22 37.8481 27.4062C39.65 27.5278 41.5835 28.378 43.1715 29.913C44.7594 31.4479 45.6892 33.3585 45.8894 35.1695C44.0875 35.0481 42.1567 34.1949 40.566 32.6599L40.5688 32.6627Z" fill="white"/>
<path d="M33.951 7.99211C32.95 9.34764 31.6719 10.3278 30.3226 10.8827C30.5831 10.3995 30.8656 9.89703 31.1673 9.36421L32.8403 6.40744L30.3637 8.71543C29.9249 9.12402 29.508 9.54366 29.1104 9.97709C29.2475 8.50837 29.8125 6.9872 30.8135 5.63167C32.1107 3.87031 33.8852 2.74116 35.6678 2.35742C35.8132 4.19056 35.2482 6.23075 33.951 7.98935V7.99211Z" fill="white"/>
<path d="M8.56595 12.9366C9.35581 14.1679 10.4446 15.0596 11.6239 15.54C11.3661 14.2479 10.8011 12.8399 9.73703 11.3795C10.3843 11.8047 11.1878 12.4451 11.9091 13.3893C12.0984 13.6378 12.2629 13.8807 12.4083 14.1182C12.3013 13.1077 11.9503 12.0724 11.3414 11.1255C10.3925 9.64018 8.99927 8.65459 7.54571 8.27637C7.29065 9.76718 7.61427 11.4513 8.56595 12.9366Z" fill="white"/>
<path d="M17.2408 19.165C18.2418 21.3267 19.849 22.9362 21.6069 23.7672C22.1061 21.8733 21.9086 19.5929 20.9076 17.4313C19.9066 15.2696 18.2967 13.6573 16.5387 12.8291C16.0423 14.723 16.237 17.0034 17.238 19.1623L17.2408 19.165Z" fill="white"/>
<path d="M6.35537 20.7939C8.49184 21.8154 10.7462 22.0197 12.6276 21.5283C11.8158 19.7476 10.2251 18.1187 8.08868 17.0972C5.95221 16.0758 3.69507 15.8687 1.81641 16.3629C2.63095 18.1408 4.2189 19.7724 6.35811 20.7911L6.35537 20.7939Z" fill="white"/>
<path d="M5.08284 27.7923C6.82712 27.5936 8.33005 26.8344 9.32835 25.7825C8.1271 24.9791 6.48979 24.5761 4.74551 24.7748C3.00123 24.9736 1.49556 25.7328 0.5 26.7874C1.70125 27.588 3.33857 27.9911 5.08284 27.7923Z" fill="white"/>
<path d="M10.1018 32.6627C11.6898 31.1277 12.6195 29.22 12.8225 27.4062C11.0206 27.5278 9.08709 28.378 7.49914 29.913C5.91119 31.4479 4.98146 33.3585 4.78125 35.1695C6.58312 35.0481 8.5139 34.1949 10.1046 32.6599L10.1018 32.6627Z" fill="white"/>
<path d="M16.7167 7.99211C17.7177 9.34764 18.9958 10.3278 20.3451 10.8827C20.0846 10.3995 19.8021 9.89703 19.5004 9.36421L17.8274 6.40744L20.304 8.71543C20.7428 9.12402 21.1596 9.54366 21.5573 9.97709C21.4202 8.50837 20.8552 6.9872 19.8542 5.63167C18.5569 3.87031 16.7825 2.74116 14.9998 2.35742C14.8545 4.19056 15.4194 6.23075 16.7167 7.98935V7.99211Z" fill="white"/>
</svg>
